<svg width="24" height="24" viewBox="0 0 24 24" fill="none" xmlns="http://www.w3.org/2000/svg">
<path d="M15.9949 21.1699L15.695 20.4825L15.9949 21.1699ZM21.1703 15.9944L21.8577 16.2943L21.1703 15.9944ZM21.309 8.33986L20.6111 8.61447L21.309 8.33986ZM15.66 21.3089L15.3853 20.6109L15.66 21.3089ZM16.2949 2.14229C16.1759 2.09037 16.0558 2.04054 15.9346 1.99285L15.3853 3.38869C15.4895 3.42968 15.5928 3.47251 15.6951 3.51715L16.2949 2.14229ZM22.007 8.06525C21.9592 7.94386 21.9093 7.82355 21.8573 7.70437L20.4825 8.30425C20.5272 8.40671 20.5701 8.51013 20.6111 8.61447L22.007 8.06525ZM21.8577 16.2943C21.9095 16.1754 21.9593 16.0554 22.007 15.9344L20.6111 15.3852C20.5702 15.4892 20.5274 15.5924 20.4828 15.6946L21.8577 16.2943ZM15.9346 22.0068C16.0557 21.9591 16.1758 21.9093 16.2948 21.8574L15.695 20.4825C15.5927 20.5271 15.4895 20.57 15.3853 20.6109L15.9346 22.0068ZM7.70514 21.8574C7.82413 21.9093 7.94425 21.9591 8.06544 22.0068L8.61466 20.6109C8.51049 20.57 8.40723 20.5271 8.30493 20.4825L7.70514 21.8574ZM1.99303 15.9344C2.04072 16.0556 2.09053 16.1757 2.14244 16.2946L3.5173 15.6948C3.47268 15.5926 3.42985 15.4893 3.38887 15.3852L1.99303 15.9344ZM2.14257 7.70467C2.09062 7.82375 2.04076 7.94395 1.99304 8.06524L3.38887 8.61446C3.42989 8.51021 3.47275 8.40688 3.51742 8.30451L2.14257 7.70467ZM8.06541 1.99286C7.94422 2.04055 7.8241 2.09037 7.70511 2.14228L8.30491 3.51714C8.40721 3.47251 8.51046 3.42968 8.61464 3.38869L8.06541 1.99286ZM6.51991 6.51951C6.82119 6.21824 7.02854 5.85664 7.18661 5.52522C7.33997 5.20367 7.47965 4.83529 7.59496 4.55723C7.86441 3.9075 8.06053 3.62375 8.30491 3.51714L7.70511 2.14228C6.83953 2.5199 6.45609 3.38773 6.20939 3.98261C6.06663 4.32685 5.96409 4.60403 5.83271 4.8795C5.70603 5.1451 5.58613 5.33197 5.45925 5.45885L6.51991 6.51951ZM3.51742 8.30451C3.62404 8.06012 3.90781 7.864 4.55756 7.59456C4.83564 7.47925 5.20403 7.33957 5.52559 7.18621C5.85702 7.02815 6.21863 6.82079 6.51991 6.51951L5.45925 5.45885C5.33238 5.58573 5.1455 5.70563 4.87989 5.8323C4.60442 5.96368 4.32723 6.06622 3.98298 6.20897C3.38809 6.45566 2.52022 6.83909 2.14257 7.70467L3.51742 8.30451ZM4.24999 11.9998C4.24999 11.5736 4.14081 11.1711 4.01813 10.8249C3.89911 10.489 3.73725 10.1296 3.62213 9.85146C3.35306 9.20138 3.29133 8.86236 3.38887 8.61446L1.99304 8.06524C1.64701 8.94465 1.9898 9.8299 2.23615 10.4251C2.37872 10.7696 2.50229 11.0381 2.60428 11.3259C2.7026 11.6034 2.74999 11.8203 2.74999 11.9998H4.24999ZM3.38887 15.3852C3.29133 15.1373 3.35306 14.7982 3.62213 14.1482C3.73725 13.87 3.89911 13.5106 4.01813 13.1747C4.14081 12.8285 4.24999 12.4261 4.24999 11.9998H2.74999C2.74999 12.1793 2.7026 12.3963 2.60428 12.6737C2.50229 12.9615 2.37872 13.23 2.23615 13.5745C1.9898 14.1697 1.64701 15.055 1.99303 15.9344L3.38887 15.3852ZM6.51991 17.4799C6.21862 17.1786 5.85699 16.9712 5.52555 16.8132C5.20397 16.6598 4.83557 16.5201 4.55747 16.4048C3.90769 16.1354 3.62392 15.9392 3.5173 15.6948L2.14244 16.2946C2.52008 17.1603 3.38799 17.5437 3.98291 17.7904C4.32717 17.9332 4.60437 18.0357 4.87986 18.1671C5.14548 18.2938 5.33237 18.4137 5.45925 18.5405L6.51991 17.4799ZM8.30493 20.4825C8.06055 20.3759 7.86442 20.0921 7.59498 19.4423C7.47966 19.1642 7.33999 18.7958 7.18662 18.4742C7.02856 18.1428 6.8212 17.7812 6.51991 17.4799L5.45925 18.5405C5.58613 18.6674 5.70603 18.8543 5.83271 19.1199C5.96409 19.3954 6.06663 19.6726 6.20938 20.0169C6.45607 20.6118 6.8395 21.4797 7.70514 21.8574L8.30493 20.4825ZM17.4801 17.4796C17.1788 17.7809 16.9714 18.1426 16.8133 18.4741C16.66 18.7957 16.5203 19.1641 16.405 19.4422C16.1355 20.0921 15.9394 20.3759 15.695 20.4825L16.2948 21.8574C17.1605 21.4797 17.5439 20.6117 17.7906 20.0167C17.9333 19.6725 18.0359 19.3952 18.1673 19.1197C18.2939 18.8541 18.4138 18.6672 18.5407 18.5403L17.4801 17.4796ZM20.4828 15.6946C20.3762 15.9389 20.0924 16.1351 19.4426 16.4045C19.1645 16.5198 18.7961 16.6595 18.4745 16.8129C18.143 16.971 17.7814 17.1783 17.4801 17.4796L18.5407 18.5403C18.6676 18.4134 18.8545 18.2935 19.1201 18.1668C19.3956 18.0354 19.6729 17.9329 20.0172 17.7901C20.6121 17.5434 21.4801 17.16 21.8577 16.2943L20.4828 15.6946ZM19.75 11.9998C19.75 12.4261 19.8592 12.8285 19.9819 13.1747C20.1009 13.5106 20.2627 13.87 20.3779 14.1482C20.6469 14.7982 20.7087 15.1373 20.6111 15.3852L22.007 15.9344C22.353 15.055 22.0102 14.1697 21.7638 13.5745C21.6213 13.23 21.4977 12.9615 21.3957 12.6737C21.2974 12.3963 21.25 12.1793 21.25 11.9998H19.75ZM17.4801 6.51929C17.7813 6.82056 18.1429 7.02792 18.4744 7.18598C18.7959 7.33933 19.1643 7.479 19.4423 7.59431C20.0921 7.86374 20.3758 8.05986 20.4825 8.30425L21.8573 7.70437C21.4796 6.83882 20.6118 6.45541 20.0169 6.20873C19.6727 6.06598 19.3955 5.96344 19.1201 5.83207C18.8545 5.7054 18.6676 5.58551 18.5407 5.45863L17.4801 6.51929ZM12 19.7498C11.5738 19.7498 11.1713 19.859 10.8251 19.9817C10.4892 20.1007 10.1298 20.2626 9.85166 20.3777C9.20158 20.6467 8.86256 20.7085 8.61466 20.6109L8.06544 22.0068C8.94486 22.3528 9.8301 22.01 10.4253 21.7637C10.7698 21.6211 11.0383 21.4975 11.3261 21.3955C11.6036 21.2972 11.8205 21.2498 12 21.2498V19.7498ZM15.6951 3.51715C15.9395 3.62376 16.1356 3.90749 16.405 4.55715C16.5204 4.83519 16.66 5.20354 16.8134 5.52507C16.9715 5.85646 17.1788 6.21803 17.4801 6.51929L18.5407 5.45863C18.4139 5.33176 18.294 5.14489 18.1673 4.87931C18.0359 4.60386 17.9334 4.3267 17.7906 3.98249C17.5439 3.38765 17.1604 2.51989 16.2949 2.14229L15.6951 3.51715ZM12 4.24981C12.4262 4.24981 12.8287 4.14063 13.1749 4.01795C13.5108 3.89893 13.8702 3.73707 14.1483 3.62194C14.7984 3.35288 15.1374 3.29115 15.3853 3.38869L15.9346 1.99285C15.0551 1.64683 14.1699 1.98962 13.5747 2.23597C13.2302 2.37854 12.9617 2.50211 12.6739 2.6041C12.3964 2.70242 12.1794 2.74981 12 2.74981V4.24981ZM20.6111 8.61447C20.7087 8.86236 20.6469 9.20138 20.3779 9.85147C20.2627 10.1296 20.1009 10.489 19.9819 10.8249C19.8592 11.1711 19.75 11.5736 19.75 11.9998H21.25C21.25 11.8203 21.2974 11.6034 21.3957 11.3259C21.4977 11.0381 21.6213 10.7696 21.7638 10.4251C22.0102 9.8299 22.353 8.94466 22.007 8.06525L20.6111 8.61447ZM15.3853 20.6109C15.1375 20.7085 14.7984 20.6467 14.1483 20.3777C13.8702 20.2626 13.5108 20.1007 13.1749 19.9817C12.8287 19.859 12.4263 19.7498 12 19.7498V21.2498C12.1795 21.2498 12.3965 21.2972 12.6739 21.3955C12.9617 21.4975 13.2302 21.6211 13.5747 21.7637C14.1699 22.01 15.0552 22.3528 15.9346 22.0068L15.3853 20.6109ZM12 2.74981C11.8205 2.74981 11.6035 2.70242 11.3261 2.6041C11.0383 2.50211 10.7698 2.37854 10.4253 2.23597C9.83007 1.98962 8.94483 1.64683 8.06541 1.99286L8.61464 3.38869C8.86253 3.29115 9.20155 3.35289 9.85164 3.62195C10.1298 3.73708 10.4892 3.89893 10.8251 4.01795C11.1713 4.14063 11.5737 4.24981 12 4.24981V2.74981Z" fill="#2B3F6C"/>
<circle cx="9.79852" cy="9.7986" r="0.791538" transform="rotate(45 9.79852 9.7986)" fill="#2B3F6C"/>
<circle cx="14.2015" cy="14.2014" r="0.791538" transform="rotate(45 14.2015 14.2014)" fill="#2B3F6C"/>
<path d="M9.7612 14.2388L14.2388 9.76123" stroke="#2B3F6C" stroke-width="1.5" stroke-linecap="round" stroke-linejoin="round"/>
</svg>
